<?xml version="1.0" encoding="UTF-8" standalone="no"?><!DOCTYPE svg PUBLIC "-//W3C//DTD SVG 1.1//EN" "http://www.w3.org/Graphics/SVG/1.1/DTD/svg11.dtd"><svg width="100%" height="100%" viewBox="0 0 20834 20834" version="1.1" xmlns="http://www.w3.org/2000/svg" xmlns:xlink="http://www.w3.org/1999/xlink" xml:space="preserve" xmlns:serif="http://www.serif.com/" style="fill-rule:evenodd;clip-rule:evenodd;stroke-linejoin:round;stroke-miterlimit:2;"><g><g><clipPath id="_clip1"><path d="M10387.923,8379.378c-6.087,0.879 -12.207,1.66 -18.376,2.49c0,30.013 -5.583,61.296 0.96,89.762c37.37,162.451 42.741,324.365 11.328,488.835c-24.414,127.946 4.118,241.943 114.616,324.154c18.18,13.46 37.972,29.215 59.082,33.333c76.042,14.665 145.345,-10.791 206.136,-52.913c99.788,-69.206 198.617,-140.365 292.871,-216.878c56.624,-45.996 103.125,-104.167 134.587,-172.445c-22.087,8.87 -42.627,19.027 -59.049,33.789c-99.821,90.039 -198.535,181.283 -297.998,271.696c-64.372,58.545 -136.328,105.046 -227.295,89.307c-144.987,-25.098 -206.706,-164.307 -197.705,-304.378c8.464,-131.885 45.508,-262.288 17.594,-395.882c-13.216,-63.379 -24.544,-127.214 -36.751,-190.869Zm729.46,4490.462c-45.557,156.657 -87.305,298.193 -36.719,454.948c26.79,83.089 16.048,178.255 22.217,268.001c-43.636,32.747 -7.259,103.174 -61.719,131.038c-1.709,0.879 -2.002,4.883 -2.702,7.471c-15.869,60.661 -31.706,121.322 -48.372,184.993c-8.757,-8.089 -16.504,-15.202 -25.293,-23.291l0,244.922c-4.883,-2.214 -15.462,-7.096 -25.96,-11.882c-2.295,2.035 -5.957,3.841 -5.876,5.452c4.215,112.256 -69.092,168.88 -157.243,209.798c-27.588,12.744 -64.307,6.787 -96.875,7.829c-45.345,1.383 -90.804,1.595 -136.182,1.709c-36.833,0.081 -73.665,-0.781 -110.498,-0.879c-66.911,-0.114 -133.789,-0.033 -206.169,-0.033c4.053,-119.71 23.47,-230.876 110.303,-319.385c8.203,-8.366 20.915,-14.486 32.536,-16.943c19.417,-4.053 39.583,-4.053 59.424,-6.006c92.627,-9.212 159.489,-50.505 178.125,-147.835c14.99,-78.206 39.453,-157.08 38.33,-235.368c-2.376,-162.793 -16.634,-325.553 -30.42,-487.972c-14.079,-166.406 -27.539,-333.285 -52.214,-498.291c-21.745,-145.199 -59.668,-287.988 -88.281,-432.243c-12.76,-64.128 -16.748,-130.078 -30.924,-193.831c-25.163,-113.542 -96.208,-204.134 -160.954,-296.501c-62.256,-88.786 -101.253,-185.335 -119.58,-294.873c-8.757,4.329 -16.455,8.122 -27.083,13.411c-8.171,-31.999 -16.13,-63.379 -26.042,-102.165c-12.207,19.45 -21.175,33.757 -30.127,48.047c-4.297,-0.586 -8.626,-1.172 -12.923,-1.709l0,-277.669c-3.613,-1.465 -7.21,-2.881 -10.791,-4.378c-12.24,15.299 -24.495,30.583 -38.997,48.747c-37.581,-87.044 -20.622,-170.996 -3.288,-254.085c9.668,-46.029 22.656,-91.829 39.128,-135.954c26.53,-71.077 23.584,-141.667 9.863,-214.583c-29.46,-157.048 -57.666,-314.339 -83.333,-472.038c-17.074,-104.834 7.715,-207.666 24.137,-310.547c4.655,-29.574 12.24,-58.74 16.325,-88.33c2.376,-16.878 0.456,-34.326 0.456,-42.041c-83.333,12.5 -159.668,30.876 -236.621,33.87c-108.789,4.297 -218.132,-0.879 -327.035,-5.664c-66.178,-2.913 -116.797,-42.66 -166.715,-82.373c-84.001,-66.748 -132.454,-160.758 -192.253,-246.126c-17.253,-24.577 -38.2,-46.549 -55.127,-71.257c-29.785,-43.571 -23.617,-92.122 20.833,-119.287c95.296,-58.122 193.88,-110.954 289.795,-168.164c84.912,-50.667 167.79,-104.704 252.083,-156.494c46.338,-28.499 68.001,-71.468 63.965,-123.096c-6.038,-77.913 34.082,-126.709 87.044,-176.123c74.251,-69.206 141.455,-145.866 211.41,-219.58c4.834,-5.127 10.335,-11.882 10.921,-18.245c2.832,-32.959 4.167,-66.048 6.25,-103.418c23.405,9.88 43.669,18.376 73.617,31.038c-11.784,-38.2 -20.752,-67.285 -32.324,-104.964c27.539,14.795 47.998,25.749 75.033,40.251c-2.035,-40.739 -3.874,-77.458 -6.169,-123.21c34.294,42.334 62.419,77.083 98.128,121.208l0,-89.29c12.256,11.165 21.924,19.971 34.831,31.755c7.178,-14.502 13.005,-26.253 21.175,-42.79c18.213,53.874 64.583,41.048 99.837,46.826c134.831,21.842 265.12,57.959 390.495,111.8c40.869,17.546 81.543,35.661 121.875,54.411c105.371,49.137 184.749,128.76 254.59,219.255c120.54,156.38 244.58,310.205 359.945,470.329c62.5,86.882 120.589,180.046 161.263,278.467c35.205,85.205 67.074,171.077 123.242,243.831c53.206,69.043 113.249,132.91 171.875,197.673c96.826,106.901 194.954,212.695 296.745,323.568c-23.242,12.044 -36.035,18.75 -51.074,26.546c17.253,16.374 32.454,30.794 47.493,45.329c5.208,4.932 14.209,10.091 14.421,15.511c4.085,93.245 89.795,117.79 144.629,163.623c145.833,122.038 293.962,242.546 450.212,350.667c203.451,140.755 338.997,335.254 461.279,541.96c50.83,85.954 94.922,176.709 134.294,268.587c43.376,101.156 114.128,181.201 183.171,263.281c121.663,144.499 243.831,288.623 366.081,432.747c29.671,34.928 60.335,69.01 93.245,106.543c-6.999,3.174 -14.323,6.592 -25.749,11.882c28.548,41.032 56.706,81.624 87.549,126.042l-54.036,0c7.747,19.368 11.833,37.874 21.582,52.669c71.208,107.878 106.576,228.076 117.952,354.997c13.672,152.327 23.877,305.16 31.413,457.959c2.539,50.879 -2.197,103.662 -13.493,153.288c-29.248,128.499 0.456,264.876 153.613,332.715c-23.828,12.288 -44.906,23.21 -74.333,38.363c54.053,56.543 105.469,110.384 159.212,166.667c-39.323,-14.079 -77.702,-27.865 -124.626,-44.694c33.252,56.283 59.342,107.699 92.383,154.281c28.711,40.413 29.655,70.378 -13.167,98.633c-9.294,6.169 -15.999,16.292 -26.335,27.116c7.536,9.717 14.827,19.124 28.63,37.012c-44.092,10.042 -83.04,24.788 -122.721,26.742c-80.371,4.085 -161.117,-0.993 -241.569,1.921c-65.592,2.409 -130.794,13.997 -196.338,15.658c-48.047,1.139 -98.34,0 -143.913,-12.988c-67.513,-19.336 -126.969,-10.205 -184.88,24.577c-20.882,12.5 -40.169,27.718 -61.003,40.299c-47.168,28.499 -96.077,48.779 -153.743,46.533c-77.555,-2.913 -155.339,-0.537 -233.008,-0.749c-45.703,-0.163 -88.574,-5.615 -114.128,-52.246c-4.167,-7.633 -24.495,-15.007 -30.827,-11.247c-78.874,46.029 -151.839,4.834 -222.38,-19.043c-58.919,-19.922 -117.253,-50.667 -166.032,-88.997c-86.263,-67.887 -178.092,-94.385 -284.473,-69.71c-94.45,21.875 -187.321,8.252 -280.778,-7.845c-79.964,-13.737 -139.844,37.76 -145.931,118.132c-3.988,52.539 -6.738,106.038 -19.206,156.917c-20.866,85.286 -69.076,110.661 -155.127,101.172c-55.876,-6.169 -112.874,-2.637 -169.32,-2.588c-39.681,0 -79.297,2.62 -118.88,1.546c-13.542,-0.26 -27.458,-6.917 -40.299,-12.712c-30.615,-13.786 -59.701,-31.966 -91.374,-42.334c-22.738,-7.422 -30.745,-15.999 -32.617,-40.674c-5.957,-79.411 27.458,-136.751 87.37,-185.579c33.382,-27.246 59.619,-63.167 91.374,-97.673c-56.413,-7.617 -104.671,-11.035 -151.367,-21.484c-33.887,-7.633 -67.22,-21.501 -97.998,-37.793c-70.638,-37.549 -78.499,-89.502 -61.589,-169.84c12.077,-57.292 66.667,-71.712 113.786,-86.702c76.221,-24.382 154.997,-25.798 234.001,-14.583c33.594,4.753 56.38,-2.881 66.748,-40.999c28.792,-105.876 43.213,-212.337 26.335,-321.68c-6.331,-40.82 -8.203,-83.203 -21.045,-121.908c-24.202,-72.998 -69.401,-129.167 -141.162,-165.218c-94.906,-47.656 -185.921,-102.49 -253.239,-202.36"/></clipPath><g clip-path="url(#_clip1)"><rect x="9012.126" y="8014.535" width="5463.704" height="6427.376" style="fill:url(#_Linear2);fill-rule:nonzero;"/></g></g></g><g><g><clipPath id="_clip3"><path d="M10542.334,6199.463c-2284.131,0 -4135.758,1851.628 -4135.758,4135.742c0,1167.383 483.838,2221.468 1261.67,2973.421c2.832,-22.917 5.794,-45.882 8.968,-68.75c5.908,-42.839 11.54,-83.333 14.29,-121.875c3.906,-54.508 16.536,-102.799 26.709,-141.585c4.036,-15.625 8.252,-31.201 11.377,-46.924c13.656,-68.783 39.372,-127.995 62.028,-180.241c7.926,-18.294 15.885,-36.54 22.965,-54.997c20.329,-53.044 43.083,-104.378 67.041,-154.378c-496.338,-598.291 -794.84,-1366.536 -794.84,-2204.671c0,-1908.415 1547.087,-3455.534 3455.55,-3455.534c1908.464,0 3455.501,1547.119 3455.501,3455.534c0,412.337 -72.331,807.715 -204.834,1174.382c120.752,143.408 242.09,286.54 363.46,429.622c18.994,22.38 38.542,44.499 58.87,67.497l72.884,83.04c249.902,-532.666 389.86,-1127.197 389.86,-1754.541c0,-2284.115 -1851.611,-4135.742 -4135.742,-4135.742"/></clipPath><g clip-path="url(#_clip3)"><rect x="6406.576" y="6199.463" width="8271.501" height="7109.163" style="fill:url(#_Linear4);fill-rule:nonzero;"/></g></g></g><path d="M10785.417,10862.419c-6.787,-17.79 -20.622,-27.214 -37.744,-34.001c-80.127,-31.966 -160.254,-63.965 -239.844,-97.331c-10.042,-4.167 -19.873,-14.795 -24.577,-24.837c-21.126,-45.085 -52.214,-79.622 -100.749,-93.083c-25.456,-7.08 -50.537,-15.495 -75.423,-22.217c-21.794,-5.908 -46.159,-20.736 -65.625,-16.781c-38.086,7.699 -68.587,-16.211 -104.753,-14.128c-71.126,4.118 -124.154,-43.164 -130.697,-114.827c-2.881,-31.348 0.618,-63.298 1.367,-95.003c0.749,-30.208 2.588,-60.465 1.921,-90.674c-0.163,-8.333 -5.843,-20.915 -12.207,-23.535c-6.25,-2.507 -17.757,3.662 -24.967,8.838c-6.82,4.867 -12.126,12.777 -16.292,20.361c-50.326,92.041 -95.166,185.628 -125.244,287.419c-36.914,124.626 -107.617,232.292 -196.338,327.799c-9.993,10.791 -15.706,25.667 -23.079,38.867c-2.165,3.792 -2.995,8.301 -4.671,12.337c-19.71,47.331 -39.827,94.466 -59.001,142.008c-5.208,12.826 -7.91,26.79 -11.621,40.283c-5.452,19.661 -10.547,39.502 -16.292,59.082c-4.622,15.918 -13.704,30.957 -3.239,48.454c2.702,4.508 0.033,12.923 -1.676,19.222c-3.792,13.916 -14.583,26.53 1.204,41.699c3.971,3.76 -3.532,20.166 -6.576,30.452c-3.955,13.542 -10.872,27.214 11.296,36.751c-19.971,30.42 -38.542,60.01 -58.415,88.639c-14.209,20.54 -31.299,39.16 -44.792,60.205c-5.208,8.203 -4.085,20.492 -5.632,30.99c-0.423,2.832 1.204,6.38 0,8.545c-14.079,25.342 -28.743,50.374 -42.676,75.749c-4.622,8.464 -6.901,18.164 -11.279,26.79c-5.55,10.758 -10.596,22.331 -18.636,31.087c-14.909,16.341 -38.997,25.618 -38.037,53.255c-22.119,8.496 -43.913,23.21 -66.325,24.17c-50,1.986 -100.293,-3.337 -150.472,-4.801c-19.824,-0.618 -38.818,0.749 -55.664,15.918c-8.366,7.503 -23.242,8.122 -35.368,10.921c-16.634,3.743 -30.29,9.961 -37.126,27.669c-1.839,4.785 -10.498,8.496 -16.667,9.912c-17.204,3.955 -35.872,3.743 -51.709,10.498c-11.165,4.753 -18.376,18.376 -27.751,27.702c-5.208,5.208 -10.547,11.556 -17.09,14.014c-37.956,14.323 -76.367,27.458 -114.502,41.455c-10.693,3.955 -23.079,6.787 -22.819,22.868c0.033,3.125 -4.59,7.21 -8.04,9.342c-36.556,22.412 -73.21,44.499 -109.928,66.536c-12.663,7.585 -25.326,13.965 -27.751,31.494c-0.7,5.257 -9.619,10.01 -15.625,13.802c-43.571,27.669 -89.453,52.295 -130.42,83.447c-32.406,24.674 -59.863,56.348 -87.614,86.67c-22.217,24.219 -38.753,52.718 -67.008,72.461c-17.952,12.549 -31.706,33.171 -43.083,52.62c-80.208,137.126 -158.366,275.96 -215.202,424.17c-25.879,67.464 -61.751,133.089 -75.635,202.751c-10.872,54.541 -30.697,107.34 -34.749,163.835c-5.16,71.956 -17.871,143.294 -26.123,215.039c-10.579,91.829 -25.586,182.633 -52.832,271.338c-8.333,27.165 -23.291,46.745 -45.492,62.744c-57.08,41.048 -122.168,62.256 -190.007,75.342c-87.337,16.96 -174.04,20.622 -263.786,7.292c-95.54,-14.176 -188.965,-32.926 -279.59,-65.218c-42.253,-14.99 -81.836,-37.419 -123.91,-53.044c-101.497,-37.663 -196.712,-87.402 -287.288,-146.159c-50.765,-32.91 -53.337,-85.042 -6.055,-122.038c21.956,-17.253 27.344,-37.386 21.956,-62.044c-5.697,-26.09 -27.36,-32.454 -49.74,-37.256c-74.382,-16.113 -130.745,12.386 -169.954,73.926c-21.126,33.203 -38.005,69.792 -52.051,106.624c-24.04,63.33 -5.713,120.247 38.916,167.367c67.334,71.126 147.412,127.913 238.249,161.914c176.709,66.13 350.928,140.137 533.789,189.014c20.003,5.322 40.088,10.205 60.254,14.779c14.29,3.304 26.628,6.803 36.507,20.752c5.534,7.878 21.663,10.465 33.333,11.344c13.411,0.911 23.128,5.078 35.042,11.995c15.869,9.294 37.451,11.751 56.624,11.963c44.743,0.407 89.583,-2.262 134.375,-3.63c11.247,-0.374 20.117,0.326 27.572,12.712c4.004,6.657 19.092,7.959 29.46,9.294c16.504,2.083 31.25,3.288 46.68,14.16c12.321,8.626 33.74,8.04 50.456,6.087c29.118,-3.467 57.617,-11.751 86.621,-16.878c11.751,-2.165 22.461,-3.581 34.033,7.747c6.087,5.957 25.423,2.62 36.751,-1.742c26.758,-10.303 51.758,-25.342 78.597,-35.465c18.278,-6.917 38.411,-11.589 57.91,-12.5c36.035,-1.546 56.331,17.708 58.838,53.792c2.783,39.421 14.876,75.293 37.419,107.373c5.778,8.252 15.951,13.379 23.372,20.622c4.46,4.378 8.203,9.831 10.954,15.462c9.701,19.922 22.331,24.87 43.538,18.962c5.55,-1.465 15.039,0.96 18.962,5.16c43.913,47.087 101.123,60.628 161.833,67.415c14.827,1.676 29.085,9.18 43.506,14.209c14.616,5.094 28.711,12.467 43.62,15.332c52.702,10.221 105.339,21.794 158.545,27.637c129.085,14.29 258.415,26.611 387.874,37.419c33.545,2.832 68.034,-6.429 101.628,-3.76c34.749,2.751 68.913,13.135 103.288,20.426c4.997,0.993 9.701,4.867 14.535,4.867c58.171,-0.798 116.667,7.536 174.3,-7.21c25.163,-6.413 43.701,-20.247 55.16,-43.831c5.794,-11.882 12.549,-23.34 19.466,-34.668c24.284,-39.746 18.457,-86.491 -15.251,-118.587c-38.037,-36.198 -84.245,-58.822 -130.924,-81.624c-74.202,-36.198 -151.53,-45.866 -232.699,-37.614c-30.762,3.076 -62.044,3.239 -92.969,2.083c-34.831,-1.302 -40.82,-14.388 -25.667,-45.215c13.965,-28.418 25.586,-57.992 39.583,-86.41c3.125,-6.348 11.751,-13.802 18.213,-14.128c66.26,-3.711 132.503,-6.966 198.828,-8.171c21.712,-0.456 43.506,6.087 65.381,8.203c45.459,4.346 91.878,15.137 136.296,9.798c50.326,-6.038 96.452,-32.292 131.624,-71.126c16.797,-18.538 13.33,-62.663 -2.132,-83.659c-60.791,-82.585 -145.166,-114.762 -244.661,-114.714l-42.171,0c7.666,-9.831 12.793,-15.462 16.878,-21.745c5.794,-8.838 10.921,-18.132 16.243,-27.262c1.839,-3.125 2.93,-8.545 5.387,-9.294c23.503,-7.113 14.746,-24.251 12.956,-39.372c-0.293,-2.165 -0.049,-4.411 -0.049,-8.659c8.838,6.12 16.585,11.491 27.165,18.831c3.255,-11.214 5.843,-19.954 8.757,-29.964c36.995,-0.163 12.874,-34.408 27.132,-50.293c1.709,4.46 2.572,9.001 4.948,12.467c2.962,4.378 6.592,9.456 11.084,11.117c2.295,0.879 7.048,-5.127 10.791,-7.829c4.297,-3.044 9.212,-9.001 13.005,-8.382c18.88,3.125 24.121,-8.626 28.874,-22.868c4.59,-13.672 10.579,-26.758 17.952,-45.166c5.876,12.793 9.049,19.661 14.632,31.787c13.623,-16.748 25.212,-30.908 36.784,-45.085c1.335,-1.709 3.385,-4.655 4.508,-4.378c29.915,6.917 30.208,-22.07 43.783,-39.323c7.764,14.209 13.721,25.749 20.264,36.995c81.999,141.423 151.449,288.704 212.126,440.495c32.699,81.836 52.572,165.511 57.406,253.337c3.63,66.341 55.762,131.413 119.01,151.465c6.999,2.214 14.876,2.995 20.947,6.706c66.748,40.299 140.885,27.458 212.012,26.09c64.616,-1.253 109.57,-47.754 122.949,-111.67c2.083,-10.01 4.134,-19.954 7.34,-35.303c29.248,0 58.659,0.472 87.988,-0.081c82.796,-1.497 109.131,-73.503 90.918,-137.907c-15.072,-53.548 -53.955,-77.165 -109.001,-80.339c-79.248,-4.541 -135.042,-50.13 -148.698,-129.004c-13.428,-77.539 -21.419,-156.462 -25.505,-235.124c-6.836,-133.447 -9.245,-267.204 -12.337,-400.879c-0.993,-41.992 1.758,-84.115 2.962,-126.204c0.163,-5.827 -0.244,-12.5 2.295,-17.334c15.837,-29.997 33.171,-59.294 48.454,-89.535c9.212,-18.213 15.544,-37.842 23.584,-57.959c5.632,2.588 11.458,7.324 17.204,7.243c5.632,-0.081 14.665,-3.955 16.13,-8.285c10.579,-31.12 19.661,-62.76 29.704,-95.801c17.253,-0.667 31.006,-8.04 31.299,-30.078c8.545,0.798 15.625,1.416 18.913,1.709c15.218,-23.291 28.467,-45.036 43.294,-65.706c10.335,-14.421 25.879,-25.83 33.708,-41.292c14.958,-29.704 26.09,-61.328 39.665,-94.287c16.797,2.572 22.835,-10.465 23.177,-27.832c0.277,-16.211 -0.635,-32.422 14.535,-43.555c1.123,-0.749 1.839,-2.409 2.165,-3.792c7.08,-26.79 14.551,-53.532 20.833,-80.534c2.751,-11.995 0.83,-25.342 17.171,-29.883c3.158,-0.863 5.241,-7.992 6.543,-12.581c3.874,-13.704 7.666,-27.458 10.417,-41.374c5.957,-29.834 13.249,-59.668 16.211,-89.876c2.702,-28.32 0.57,-57.113 0.57,-87.695c18.294,-0.635 16.423,-15.544 10.01,-28.76c-11.995,-24.658 -8.496,-50.13 -8.594,-75.879c-0.033,-22.282 -2.083,-45.28 -7.91,-66.699c-13.379,-49.626 -29.622,-98.503 -44.548,-147.705c-0.944,-3.174 -1.709,-7.959 -0.081,-10.173c16.748,-22.835 0,-39.046 -10.075,-56.917c-4.053,-7.161 -6.706,-15.251 -9.294,-23.128c-3.548,-10.954 -6.006,-22.249 -9.619,-33.122c-24.349,-73.584 -76.432,-133.545 -101.709,-206.673c-5.046,-14.616 -9.635,-29.492 -15.348,-43.913c-18.49,-46.826 -3.743,-86.458 26.09,-122.949c32.829,-40.169 77.881,-62.256 123.21,-84.261c36.377,-17.708 73.047,-35.335 107.422,-56.494c45.036,-27.702 66.455,-69.58 63.623,-123.372c-0.456,-8.219 2.002,-18.376 6.836,-24.837c28.125,-37.923 24.495,-81.462 25.749,-124.837c0.537,-18.864 8.708,-37.5 13.411,-56.25l0,-22.119" style="fill:#7a7b7c;"/><path d="M12311.035,12516.715l-934.082,0l0,-934.049l-1116.536,0l0,934.049l-934.082,0l0,1116.569l934.082,0l0,934.049l1116.536,0l0,-934.049l934.082,0l0,-1116.569" style="fill:#fefefe;stroke:#000;stroke-width:41.67px;"/><text x="9334.391px" y="13394.366px" style="font-family:'BritannicBold', 'Britannic Bold', sans-serif;font-size:958.333px;">PetGov</text><defs><linearGradient id="_Linear2" x1="0" y1="0" x2="1" y2="0" gradientUnits="userSpaceOnUse" gradientTransform="matrix(5463.706366,0,0,5463.706366,9012.125015,11224.416667)"><stop offset="0" style="stop-color:#489cdb;stop-opacity:1"/><stop offset="0.02" style="stop-color:#489bdb;stop-opacity:1"/><stop offset="0.02" style="stop-color:#489bda;stop-opacity:1"/><stop offset="0.03" style="stop-color:#479ada;stop-opacity:1"/><stop offset="0.04" style="stop-color:#479ad9;stop-opacity:1"/><stop offset="0.05" style="stop-color:#4699d9;stop-opacity:1"/><stop offset="0.07" style="stop-color:#4597d7;stop-opacity:1"/><stop offset="0.09" style="stop-color:#4596d6;stop-opacity:1"/><stop offset="0.09" style="stop-color:#4496d6;stop-opacity:1"/><stop offset="0.12" style="stop-color:#4494d4;stop-opacity:1"/><stop offset="0.13" style="stop-color:#4393d4;stop-opacity:1"/><stop offset="0.14" style="stop-color:#4392d3;stop-opacity:1"/><stop offset="0.17" style="stop-color:#4290d1;stop-opacity:1"/><stop offset="0.19" style="stop-color:#4190d1;stop-opacity:1"/><stop offset="0.2" style="stop-color:#418ecf;stop-opacity:1"/><stop offset="0.21" style="stop-color:#418ecf;stop-opacity:1"/><stop offset="0.22" style="stop-color:#408dce;stop-opacity:1"/><stop offset="0.23" style="stop-color:#408cce;stop-opacity:1"/><stop offset="0.23" style="stop-color:#408ccd;stop-opacity:1"/><stop offset="0.24" style="stop-color:#3f8ccd;stop-opacity:1"/><stop offset="0.26" style="stop-color:#3f8acc;stop-opacity:1"/><stop offset="0.27" style="stop-color:#3e8acc;stop-opacity:1"/><stop offset="0.27" style="stop-color:#3e89cb;stop-opacity:1"/><stop offset="0.28" style="stop-color:#3e88cb;stop-opacity:1"/><stop offset="0.29" style="stop-color:#3d88ca;stop-opacity:1"/><stop offset="0.3" style="stop-color:#3d87ca;stop-opacity:1"/><stop offset="0.3" style="stop-color:#3d87c9;stop-opacity:1"/><stop offset="0.31" style="stop-color:#3d86c9;stop-opacity:1"/><stop offset="0.32" style="stop-color:#3c86c8;stop-opacity:1"/><stop offset="0.34" style="stop-color:#3b84c8;stop-opacity:1"/><stop offset="0.34" style="stop-color:#3b84c7;stop-opacity:1"/><stop offset="0.35" style="stop-color:#3b83c7;stop-opacity:1"/><stop offset="0.36" style="stop-color:#3b83c6;stop-opacity:1"/><stop offset="0.38" style="stop-color:#3a81c5;stop-opacity:1"/><stop offset="0.39" style="stop-color:#3a81c5;stop-opacity:1"/><stop offset="0.41" style="stop-color:#397fc3;stop-opacity:1"/><stop offset="0.41" style="stop-color:#397fc3;stop-opacity:1"/><stop offset="0.42" style="stop-color:#397ec2;stop-opacity:1"/><stop offset="0.43" style="stop-color:#387ec2;stop-opacity:1"/><stop offset="0.44" style="stop-color:#387dc1;stop-opacity:1"/><stop offset="0.45" style="stop-color:#387dc1;stop-opacity:1"/><stop offset="0.45" style="stop-color:#387cc1;stop-opacity:1"/><stop offset="0.46" style="stop-color:#387cc0;stop-opacity:1"/><stop offset="0.47" style="stop-color:#387bc0;stop-opacity:1"/><stop offset="0.48" style="stop-color:#377bbf;stop-opacity:1"/><stop offset="0.48" style="stop-color:#377abf;stop-opacity:1"/><stop offset="0.5" style="stop-color:#3679be;stop-opacity:1"/><stop offset="0.5" style="stop-color:#3678bd;stop-opacity:1"/><stop offset="0.54" style="stop-color:#3576bb;stop-opacity:1"/><stop offset="0.55" style="stop-color:#3576bb;stop-opacity:1"/><stop offset="0.57" style="stop-color:#3474b9;stop-opacity:1"/><stop offset="0.58" style="stop-color:#3373b9;stop-opacity:1"/><stop offset="0.59" style="stop-color:#3373b8;stop-opacity:1"/><stop offset="0.59" style="stop-color:#3372b8;stop-opacity:1"/><stop offset="0.6" style="stop-color:#3272b7;stop-opacity:1"/><stop offset="0.63" style="stop-color:#3170b6;stop-opacity:1"/><stop offset="0.64" style="stop-color:#316fb4;stop-opacity:1"/><stop offset="0.65" style="stop-color:#316eb4;stop-opacity:1"/><stop offset="0.66" style="stop-color:#306eb3;stop-opacity:1"/><stop offset="0.66" style="stop-color:#306db3;stop-opacity:1"/><stop offset="0.67" style="stop-color:#306db2;stop-opacity:1"/><stop offset="0.68" style="stop-color:#306cb2;stop-opacity:1"/><stop offset="0.69" style="stop-color:#2f6cb1;stop-opacity:1"/><stop offset="0.7" style="stop-color:#2f6ab1;stop-opacity:1"/><stop offset="0.71" style="stop-color:#2e6ab0;stop-opacity:1"/><stop offset="0.72" style="stop-color:#2e69b0;stop-opacity:1"/><stop offset="0.73" style="stop-color:#2e69af;stop-opacity:1"/><stop offset="0.73" style="stop-color:#2e68af;stop-opacity:1"/><stop offset="0.74" style="stop-color:#2e68ae;stop-opacity:1"/><stop offset="0.75" style="stop-color:#2e67ae;stop-opacity:1"/><stop offset="0.76" style="stop-color:#2e67ad;stop-opacity:1"/><stop offset="0.76" style="stop-color:#2d67ad;stop-opacity:1"/><stop offset="0.77" style="stop-color:#2d66ad;stop-opacity:1"/><stop offset="0.77" style="stop-color:#2d66ac;stop-opacity:1"/><stop offset="0.79" style="stop-color:#2c65ab;stop-opacity:1"/><stop offset="0.8" style="stop-color:#2c64aa;stop-opacity:1"/><stop offset="0.8" style="stop-color:#2c64aa;stop-opacity:1"/><stop offset="0.81" style="stop-color:#2c63a9;stop-opacity:1"/><stop offset="0.82" style="stop-color:#2b63a9;stop-opacity:1"/><stop offset="0.83" style="stop-color:#2b62a9;stop-opacity:1"/><stop offset="0.84" style="stop-color:#2b62a8;stop-opacity:1"/><stop offset="0.84" style="stop-color:#2b61a7;stop-opacity:1"/><stop offset="0.85" style="stop-color:#2b61a7;stop-opacity:1"/><stop offset="0.86" style="stop-color:#2b60a6;stop-opacity:1"/><stop offset="0.87" style="stop-color:#2a5fa6;stop-opacity:1"/><stop offset="0.91" style="stop-color:#295ca3;stop-opacity:1"/><stop offset="0.92" style="stop-color:#295ca2;stop-opacity:1"/><stop offset="0.93" style="stop-color:#295ba2;stop-opacity:1"/><stop offset="0.95" style="stop-color:#275aa0;stop-opacity:1"/><stop offset="0.95" style="stop-color:#27599f;stop-opacity:1"/><stop offset="0.96" style="stop-color:#27599f;stop-opacity:1"/><stop offset="0.97" style="stop-color:#26599e;stop-opacity:1"/><stop offset="0.98" style="stop-color:#26589e;stop-opacity:1"/><stop offset="0.98" style="stop-color:#26589e;stop-opacity:1"/><stop offset="0.99" style="stop-color:#26579d;stop-opacity:1"/><stop offset="1" style="stop-color:#26579c;stop-opacity:1"/></linearGradient><linearGradient id="_Linear4" x1="0" y1="0" x2="1" y2="0" gradientUnits="userSpaceOnUse" gradientTransform="matrix(8271.5,0,0,8271.5,6406.583333,9754.041667)"><stop offset="0" style="stop-color:#489cdb;stop-opacity:1"/><stop offset="0.02" style="stop-color:#489bdb;stop-opacity:1"/><stop offset="0.02" style="stop-color:#479bda;stop-opacity:1"/><stop offset="0.03" style="stop-color:#479ada;stop-opacity:1"/><stop offset="0.04" style="stop-color:#479ad9;stop-opacity:1"/><stop offset="0.05" style="stop-color:#4699d9;stop-opacity:1"/><stop offset="0.05" style="stop-color:#4699d8;stop-opacity:1"/><stop offset="0.07" style="stop-color:#4597d7;stop-opacity:1"/><stop offset="0.08" style="stop-color:#4596d7;stop-opacity:1"/><stop offset="0.09" style="stop-color:#4596d6;stop-opacity:1"/><stop offset="0.09" style="stop-color:#4496d6;stop-opacity:1"/><stop offset="0.11" style="stop-color:#4494d5;stop-opacity:1"/><stop offset="0.13" style="stop-color:#4393d4;stop-opacity:1"/><stop offset="0.14" style="stop-color:#4392d3;stop-opacity:1"/><stop offset="0.16" style="stop-color:#4291d2;stop-opacity:1"/><stop offset="0.17" style="stop-color:#4290d1;stop-opacity:1"/><stop offset="0.19" style="stop-color:#418fd1;stop-opacity:1"/><stop offset="0.2" style="stop-color:#418fd0;stop-opacity:1"/><stop offset="0.2" style="stop-color:#418ecf;stop-opacity:1"/><stop offset="0.21" style="stop-color:#418ecf;stop-opacity:1"/><stop offset="0.22" style="stop-color:#408dce;stop-opacity:1"/><stop offset="0.23" style="stop-color:#408cce;stop-opacity:1"/><stop offset="0.23" style="stop-color:#408ccd;stop-opacity:1"/><stop offset="0.26" style="stop-color:#3f8acc;stop-opacity:1"/><stop offset="0.27" style="stop-color:#3e8acc;stop-opacity:1"/><stop offset="0.27" style="stop-color:#3e89cb;stop-opacity:1"/><stop offset="0.28" style="stop-color:#3e88cb;stop-opacity:1"/><stop offset="0.29" style="stop-color:#3d88ca;stop-opacity:1"/><stop offset="0.3" style="stop-color:#3d86c9;stop-opacity:1"/><stop offset="0.32" style="stop-color:#3c86c8;stop-opacity:1"/><stop offset="0.34" style="stop-color:#3b84c8;stop-opacity:1"/><stop offset="0.34" style="stop-color:#3b84c7;stop-opacity:1"/><stop offset="0.35" style="stop-color:#3b83c7;stop-opacity:1"/><stop offset="0.36" style="stop-color:#3b83c6;stop-opacity:1"/><stop offset="0.37" style="stop-color:#3b82c6;stop-opacity:1"/><stop offset="0.38" style="stop-color:#3a82c6;stop-opacity:1"/><stop offset="0.4" style="stop-color:#3a80c4;stop-opacity:1"/><stop offset="0.41" style="stop-color:#397fc3;stop-opacity:1"/><stop offset="0.41" style="stop-color:#397fc3;stop-opacity:1"/><stop offset="0.42" style="stop-color:#397ec2;stop-opacity:1"/><stop offset="0.43" style="stop-color:#387ec2;stop-opacity:1"/><stop offset="0.44" style="stop-color:#387dc1;stop-opacity:1"/><stop offset="0.45" style="stop-color:#387dc1;stop-opacity:1"/><stop offset="0.45" style="stop-color:#387cc1;stop-opacity:1"/><stop offset="0.46" style="stop-color:#387cc0;stop-opacity:1"/><stop offset="0.47" style="stop-color:#387bc0;stop-opacity:1"/><stop offset="0.48" style="stop-color:#377bbf;stop-opacity:1"/><stop offset="0.48" style="stop-color:#377abf;stop-opacity:1"/><stop offset="0.49" style="stop-color:#377abe;stop-opacity:1"/><stop offset="0.5" style="stop-color:#3679be;stop-opacity:1"/><stop offset="0.5" style="stop-color:#3679bd;stop-opacity:1"/><stop offset="0.5" style="stop-color:#3678bd;stop-opacity:1"/><stop offset="0.56" style="stop-color:#3474ba;stop-opacity:1"/><stop offset="0.57" style="stop-color:#3474b9;stop-opacity:1"/><stop offset="0.58" style="stop-color:#3373b9;stop-opacity:1"/><stop offset="0.59" style="stop-color:#3373b8;stop-opacity:1"/><stop offset="0.59" style="stop-color:#3372b8;stop-opacity:1"/><stop offset="0.6" style="stop-color:#3272b7;stop-opacity:1"/><stop offset="0.61" style="stop-color:#3271b6;stop-opacity:1"/><stop offset="0.62" style="stop-color:#3271b6;stop-opacity:1"/><stop offset="0.63" style="stop-color:#3170b5;stop-opacity:1"/><stop offset="0.63" style="stop-color:#316fb5;stop-opacity:1"/><stop offset="0.64" style="stop-color:#316fb4;stop-opacity:1"/><stop offset="0.65" style="stop-color:#316eb4;stop-opacity:1"/><stop offset="0.66" style="stop-color:#306eb3;stop-opacity:1"/><stop offset="0.66" style="stop-color:#306db3;stop-opacity:1"/><stop offset="0.67" style="stop-color:#306db2;stop-opacity:1"/><stop offset="0.68" style="stop-color:#2f6cb2;stop-opacity:1"/><stop offset="0.69" style="stop-color:#2f6bb1;stop-opacity:1"/><stop offset="0.7" style="stop-color:#2f6bb1;stop-opacity:1"/><stop offset="0.7" style="stop-color:#2f6ab1;stop-opacity:1"/><stop offset="0.71" style="stop-color:#2e6ab0;stop-opacity:1"/><stop offset="0.72" style="stop-color:#2e69b0;stop-opacity:1"/><stop offset="0.73" style="stop-color:#2e69af;stop-opacity:1"/><stop offset="0.73" style="stop-color:#2e68af;stop-opacity:1"/><stop offset="0.74" style="stop-color:#2e68ae;stop-opacity:1"/><stop offset="0.75" style="stop-color:#2e67ae;stop-opacity:1"/><stop offset="0.76" style="stop-color:#2e67ad;stop-opacity:1"/><stop offset="0.76" style="stop-color:#2d66ad;stop-opacity:1"/><stop offset="0.77" style="stop-color:#2d66ac;stop-opacity:1"/><stop offset="0.79" style="stop-color:#2c65ab;stop-opacity:1"/><stop offset="0.81" style="stop-color:#2c63a9;stop-opacity:1"/><stop offset="0.82" style="stop-color:#2b63a9;stop-opacity:1"/><stop offset="0.83" style="stop-color:#2b62a9;stop-opacity:1"/><stop offset="0.84" style="stop-color:#2b61a7;stop-opacity:1"/><stop offset="0.85" style="stop-color:#2b61a7;stop-opacity:1"/><stop offset="0.86" style="stop-color:#2b60a6;stop-opacity:1"/><stop offset="0.87" style="stop-color:#2a5fa6;stop-opacity:1"/><stop offset="0.91" style="stop-color:#295ca3;stop-opacity:1"/><stop offset="0.92" style="stop-color:#295ca2;stop-opacity:1"/><stop offset="0.93" style="stop-color:#295ba2;stop-opacity:1"/><stop offset="0.95" style="stop-color:#275aa0;stop-opacity:1"/><stop offset="0.95" style="stop-color:#27599f;stop-opacity:1"/><stop offset="0.96" style="stop-color:#27599f;stop-opacity:1"/><stop offset="0.97" style="stop-color:#26599e;stop-opacity:1"/><stop offset="1" style="stop-color:#26579c;stop-opacity:1"/></linearGradient></defs></svg>